#!OML:ASF H:\GeneralSubjects\Female5\Project 1\Capture day 1\Session 1\Female5.ASF
:FULLY-SPECIFIED
:DEGREES
519
root -23.7783 15.8924 -1.39915 1158.39 280.121 -431.635
lowerback 13.7145 -1.07909 -5.29924
upperback -9.6962 -1.45839 11.6768
thorax -18.6845 0.99303 17.5515
lowerneck -12.7412 2.52792 -5.257
upperneck 44.8607 5.49511 -6.07807
head 19.7252 -0.583692 -1.37434
rclavicle 7.15625e-015 4.77083e-014
rhumerus -39.3052 42.9337 -74.0905
rradius 43.188
rwrist -17.1103
rhand -25.0597 -20.4155
rfingers 7.12502
rthumb 1.45387 -50.3903
lclavicle 7.15625e-015 4.77083e-014
lhumerus -70.2643 26.2281 62.107
lradius 26.9719
lwrist -10.9241
lhand -21.2317 28.2055
lfingers 7.12502
lthumb 5.1506 58.1229
rfemur 7.16251 13.3111 44.3831
rtibia -0.746376
rfoot -17.9295 -19.4227
rtoes -12.6118
lfemur -35.2939 -14.0539 -9.57974
ltibia 15.4171
lfoot -36.9514 -0.628026
ltoes -30.5093
520
root -24.0707 15.865 -1.38519 1160.33 280.453 -433.149
lowerback 13.3718 -1.04182 -4.86211
upperback -9.85269 -1.30967 11.7949
thorax -18.7203 1.01124 17.3813
lowerneck -12.7442 2.5341 -4.95144
upperneck 44.9079 5.59082 -6.53983
head 19.8087 -0.565927 -1.65151
rclavicle 5.68524e-014 -9.06458e-014
rhumerus -38.4044 43.0434 -73.727
rradius 43.1448
rwrist -16.7584
rhand -25.1498 -20.7278
rfingers 7.12502
rthumb 1.36688 -50.7032
lclavicle 5.68524e-014 -9.06458e-014
lhumerus -70.4255 25.7074 62.4731
lradius 27.1814
lwrist -10.8829
lhand -21.1613 28.4353
lfingers 7.12502
lthumb 5.21862 58.351
rfemur 7.83183 13.0011 44.8347
rtibia -0.822508
rfoot -18.4666 -18.4562
rtoes -10.3037
lfemur -35.8251 -19.7772 -5.36529
ltibia 9.86505
lfoot -41.0022 -2.46807
ltoes -25.6393
521
root -24.372 15.8294 -1.36042 1162.33 280.717 -434.808
lowerback 13.0545 -0.985391 -4.39571
upperback -10.0028 -1.13356 11.8702
thorax -18.7692 1.03404 17.129
lowerneck -12.7837 2.54195 -4.85339
upperneck 44.9951 5.61557 -6.64218
head 19.8934 -0.562435 -1.72478
rclavicle -9.54166e-015 4.77083e-014
rhumerus -37.7552 42.9946 -73.5083
rradius 43.1661
rwrist -16.3571
rhand -25.4511 -20.7772
rfingers 7.12502
rthumb 1.07586 -50.7542
lclavicle -9.54166e-015 4.77083e-014
lhumerus -70.6026 25.7795 61.762
lradius 26.8038
lwrist -11.7321
lhand -21.3424 28.3242
lfingers 7.12502
lthumb 5.04376 58.2442
rfemur 8.56716 12.5425 45.1463
rtibia -0.730933
rfoot -17.5119 -18.9315
rtoes -15.0962
lfemur -37.0098 -26.0094 -0.475037
ltibia 5.5274
lfoot -47.0491 -2.51674
ltoes -25.0479
522
root -24.6829 15.7824 -1.33166 1164.48 280.942 -436.782
lowerback 12.8033 -0.907333 -3.98296
upperback -10.1011 -0.940357 11.9445
thorax -18.7988 1.06883 16.9032
lowerneck -12.8005 2.53259 -4.83595
upperneck 45.0489 5.59751 -6.64942
head 19.9364 -0.573326 -1.74027
rclavicle 3.18055e-015 -7.95139e-015
rhumerus -37.3932 42.7386 -73.4053
rradius 43.2954
rwrist -15.8553
rhand -25.5707 -20.6711
rfingers 7.12502
rthumb 0.960416 -50.6487
lclavicle 3.18055e-015 -7.95139e-015
lhumerus -70.7277 25.5782 61.572
lradius 26.7732
lwrist -11.7465
lhand -21.7571 28.5295
lfingers 7.12502
lthumb 4.6433 58.4587
rfemur 9.47848 12.2578 45.4887
rtibia -0.465095
rfoot -17.5027 -18.7786
rtoes -19.8847
lfemur -38.6186 -31.0391 3.90328
ltibia 3.15527
lfoot -51.6068 -2.24179
ltoes -24.3144
523
root -25.0042 15.7258 -1.30335 1167.04 281.15 -439.318
lowerback 12.6021 -0.798368 -3.62744
upperback -10.1967 -0.718687 12.0006
thorax -18.8651 1.12711 16.6888
lowerneck -12.608 2.52888 -4.898
upperneck 45.0568 5.50285 -6.46859
head 19.8633 -0.596489 -1.65561
rclavicle 1.66979e-014 -6.20208e-014
rhumerus -37.552 42.509 -73.5875
rradius 43.6827
rwrist -15.6476
rhand -25.5488 -20.8018
rfingers 7.12502
rthumb 0.981495 -50.7793
lclavicle 1.66979e-014 -6.20208e-014
lhumerus -70.9104 25.1168 61.7918
lradius 27.1701
lwrist -11.0313
lhand -21.8395 28.888
lfingers 7.12502
lthumb 4.56373 58.8188
rfemur 10.3336 11.7356 45.724
rtibia 0.243502
rfoot -17.2833 -17.7456
rtoes -22.5516
lfemur -39.8248 -33.7756 6.62138
ltibia 2.31786
lfoot -53.4325 -3.93962
ltoes -22.9341
